<?xml version="1.0" encoding="utf-8"?>
<!-- Generator: Adobe Illustrator 15.0.0, SVG Export Plug-In . SVG Version: 6.00 Build 0)  -->
<!DOCTYPE svg PUBLIC "-//W3C//DTD SVG 1.1//EN" "http://www.w3.org/Graphics/SVG/1.1/DTD/svg11.dtd">
<svg version="1.1" id="Layer_1" xmlns="http://www.w3.org/2000/svg" xmlns:xlink="http://www.w3.org/1999/xlink" x="0px" y="0px"
	 width="493.545px" height="204.829px" viewBox="0 0 493.545 204.829" enable-background="new 0 0 493.545 204.829"
	 xml:space="preserve">
<rect x="0.014" y="-1.085" fill="#CCCCCC" width="491.245" height="206"/>
<g>
	<path fill="#FFFFFF" d="M189.008,106.998V96.832h2.052v10.166H189.008z"/>
	<path fill="#FFFFFF" d="M192.989,106.998V96.832h3.071l1.846,6.935l1.823-6.935h3.077v10.166h-1.907v-8.003l-2.016,8.003h-1.975
		l-2.013-8.003v8.003H192.989z"/>
	<path fill="#FFFFFF" d="M214.012,106.998h-2.232l-0.888-2.31h-4.063l-0.84,2.31h-2.175l3.958-10.166h2.17L214.012,106.998z
		 M210.233,102.976l-1.402-3.773l-1.373,3.773H210.233z"/>
	<path fill="#FFFFFF" d="M219.828,103.26v-1.713h4.426v4.048c-0.43,0.416-1.054,0.782-1.869,1.1
		c-0.815,0.318-1.642,0.475-2.479,0.475c-1.064,0-1.99-0.223-2.781-0.668c-0.791-0.445-1.385-1.084-1.783-1.915
		c-0.397-0.827-0.594-1.732-0.594-2.706c0-1.06,0.22-2,0.664-2.823c0.444-0.822,1.093-1.453,1.949-1.892
		c0.652-0.339,1.463-0.507,2.436-0.507c1.261,0,2.247,0.265,2.955,0.795c0.711,0.527,1.167,1.259,1.371,2.194l-2.039,0.381
		c-0.143-0.5-0.412-0.894-0.808-1.182c-0.395-0.291-0.889-0.435-1.479-0.435c-0.898,0-1.611,0.286-2.141,0.853
		c-0.528,0.57-0.792,1.413-0.792,2.531c0,1.207,0.267,2.111,0.803,2.714c0.536,0.604,1.241,0.906,2.108,0.906
		c0.428,0,0.86-0.086,1.293-0.255c0.433-0.168,0.803-0.372,1.112-0.614v-1.288H219.828z"/>
	<path fill="#FFFFFF" d="M226.145,106.998V96.832h7.537v1.719h-5.485v2.253h5.104v1.714h-5.104v2.766h5.679v1.714H226.145z"/>
	<path fill="#FFFFFF" d="M239.562,106.998V96.832h3.292c1.249,0,2.062,0.052,2.44,0.153c0.583,0.153,1.07,0.484,1.463,0.995
		c0.393,0.511,0.591,1.171,0.591,1.98c0,0.625-0.114,1.148-0.341,1.574c-0.228,0.425-0.515,0.759-0.865,1.001
		c-0.349,0.244-0.702,0.404-1.062,0.48c-0.49,0.101-1.199,0.147-2.128,0.147h-1.339v3.835H239.562z M241.614,98.551v2.885h1.123
		c0.81,0,1.35-0.053,1.624-0.158c0.273-0.107,0.488-0.273,0.642-0.5c0.155-0.227,0.233-0.49,0.233-0.791
		c0-0.37-0.11-0.675-0.327-0.914c-0.218-0.242-0.492-0.391-0.826-0.452c-0.243-0.047-0.736-0.07-1.476-0.07H241.614z"/>
	<path fill="#FFFFFF" d="M249.088,106.998V96.915h2.054v8.369h5.103v1.714H249.088z"/>
	<path fill="#FFFFFF" d="M266.872,106.998h-2.232l-0.887-2.31h-4.062l-0.84,2.31h-2.175l3.958-10.166h2.17L266.872,106.998z
		 M263.095,102.976l-1.398-3.773l-1.373,3.773H263.095z"/>
	<path fill="#FFFFFF" d="M274.466,103.26l1.989,0.631c-0.304,1.11-0.812,1.934-1.522,2.473c-0.707,0.537-1.607,0.806-2.699,0.806
		c-1.35,0-2.46-0.459-3.328-1.382c-0.87-0.923-1.303-2.183-1.303-3.782c0-1.692,0.436-3.007,1.31-3.942
		c0.872-0.935,2.022-1.404,3.446-1.404c1.244,0,2.252,0.368,3.029,1.102c0.463,0.435,0.81,1.06,1.039,1.873l-2.029,0.486
		c-0.12-0.527-0.371-0.944-0.752-1.249s-0.847-0.458-1.391-0.458c-0.756,0-1.367,0.271-1.835,0.811
		c-0.47,0.543-0.705,1.417-0.705,2.628c0,1.287,0.231,2.201,0.694,2.746c0.463,0.547,1.064,0.82,1.803,0.82
		c0.545,0,1.014-0.175,1.406-0.522C274.012,104.548,274.294,104.004,274.466,103.26z"/>
	<path fill="#FFFFFF" d="M278.216,106.998V96.832h7.537v1.719h-5.484v2.253h5.104v1.714h-5.104v2.766h5.679v1.714H278.216z"/>
	<path fill="#FFFFFF" d="M287.696,106.998V96.832h2.052v4h4.021v-4h2.052v10.166h-2.052v-4.446h-4.021v4.446H287.696z"/>
	<path fill="#FFFFFF" d="M297.526,101.978c0-1.037,0.156-1.904,0.465-2.607c0.23-0.519,0.547-0.983,0.947-1.394
		c0.399-0.412,0.837-0.717,1.314-0.917c0.633-0.268,1.362-0.402,2.19-0.402c1.497,0,2.695,0.464,3.595,1.394
		c0.9,0.93,1.349,2.221,1.349,3.877c0,1.639-0.445,2.924-1.338,3.852c-0.894,0.926-2.085,1.388-3.578,1.388
		c-1.511,0-2.714-0.459-3.605-1.382C297.975,104.865,297.526,103.594,297.526,101.978z M299.642,101.908
		c0,1.151,0.267,2.023,0.799,2.617c0.53,0.593,1.204,0.893,2.024,0.893c0.818,0,1.488-0.297,2.015-0.886
		c0.522-0.589,0.786-1.473,0.786-2.651c0-1.167-0.255-2.035-0.767-2.609c-0.51-0.571-1.189-0.859-2.034-0.859
		c-0.848,0-1.528,0.29-2.046,0.87C299.9,99.863,299.642,100.737,299.642,101.908z"/>
	<path fill="#FFFFFF" d="M309.045,106.998V96.915h2.052v8.369h5.103v1.714H309.045z"/>
	<path fill="#FFFFFF" d="M317.655,96.832h3.752c0.846,0,1.489,0.064,1.934,0.195c0.597,0.174,1.108,0.488,1.532,0.936
		c0.427,0.448,0.751,0.996,0.972,1.646c0.223,0.65,0.332,1.451,0.332,2.403c0,0.837-0.103,1.558-0.312,2.164
		c-0.254,0.74-0.617,1.339-1.089,1.795c-0.354,0.347-0.837,0.617-1.442,0.811c-0.451,0.144-1.058,0.217-1.816,0.217h-3.862V96.832z
		 M319.707,98.551v6.733h1.532c0.575,0,0.986-0.03,1.241-0.095c0.335-0.085,0.609-0.227,0.831-0.424
		c0.218-0.2,0.397-0.527,0.536-0.981c0.138-0.456,0.208-1.077,0.208-1.863c0-0.784-0.07-1.388-0.208-1.81
		c-0.139-0.421-0.332-0.749-0.582-0.984c-0.251-0.235-0.565-0.395-0.951-0.477c-0.285-0.065-0.848-0.099-1.685-0.099H319.707z"/>
	<path fill="#FFFFFF" d="M327.917,106.998V96.832h7.537v1.719h-5.485v2.253h5.104v1.714h-5.104v2.766h5.68v1.714H327.917z"/>
	<path fill="#FFFFFF" d="M337.396,106.998V96.832h4.318c1.087,0,1.876,0.092,2.369,0.275c0.491,0.183,0.885,0.507,1.181,0.974
		c0.297,0.467,0.444,1,0.444,1.602c0,0.763-0.223,1.392-0.673,1.891c-0.448,0.496-1.118,0.809-2.01,0.939
		c0.443,0.258,0.809,0.542,1.1,0.851c0.288,0.312,0.677,0.859,1.167,1.65l1.242,1.984h-2.456l-1.483-2.213
		c-0.526-0.791-0.888-1.287-1.081-1.492c-0.193-0.206-0.398-0.348-0.618-0.426c-0.217-0.075-0.561-0.114-1.032-0.114h-0.416v4.245
		H337.396z M339.448,101.13h1.519c0.986,0,1.599-0.04,1.846-0.124c0.243-0.084,0.435-0.227,0.573-0.431
		c0.14-0.202,0.209-0.457,0.209-0.761c0-0.343-0.091-0.618-0.273-0.829c-0.183-0.212-0.439-0.345-0.774-0.399
		c-0.166-0.023-0.665-0.036-1.497-0.036h-1.602V101.13z"/>
</g>
</svg>
